<?xml version="1.0" encoding="iso-8859-1"?>
<!-- Generator: Adobe Illustrator 19.0.0, SVG Export Plug-In . SVG Version: 6.00 Build 0)  -->
<svg version="1.1" id="Capa_1" xmlns="http://www.w3.org/2000/svg" xmlns:xlink="http://www.w3.org/1999/xlink" x="0px" y="0px"
	 viewBox="0 0 511.999 511.999" style="enable-background:new 0 0 511.999 511.999;" xml:space="preserve">
<g>
	<g>
		<path d="M397.423,131.319c-23.122-23.123-53.837-36.631-86.487-38.034c-4.158-0.178-7.684,3.05-7.862,7.214
			c-0.178,4.164,3.051,7.683,7.214,7.862c28.865,1.24,56.02,13.183,76.465,33.629c42.947,42.947,44.817,111.646,5.623,156.843
			L229.908,136.365c15.043-13.051,33.095-21.939,52.676-25.86c4.087-0.818,6.736-4.794,5.917-8.879
			c-0.818-4.087-4.791-6.737-8.88-5.918c-25.207,5.047-48.176,17.361-66.426,35.61c-0.256,0.255-0.481,0.529-0.692,0.809
			l-60.325,46.735L32.698,269.198c-1.596,1.207-2.647,2.998-2.923,4.981c-0.275,1.982,0.249,3.992,1.455,5.589l16.792,22.21
			c1.484,1.962,3.741,2.995,6.024,2.995c1.585,0,3.183-0.498,4.545-1.527l75.7-57.235c3.324-2.513,3.981-7.246,1.468-10.57
			c-2.513-3.323-7.244-3.982-10.57-1.468l-69.681,52.684l-7.691-10.172l108.237-81.835l19.333,19.333
			c-0.019,0.149-0.042,0.296-0.053,0.447c-1.906,28.315,5.534,56.626,20.987,80.193l-71.596,71.596
			c-2.947,2.947-2.947,7.725,0,10.67l19.689,19.689c1.473,1.473,3.404,2.21,5.335,2.21c1.931,0,3.862-0.736,5.335-2.21
			l70.392-70.393c22.866,17.797,50.655,27.324,79.665,27.324c2.979,0,5.974-0.101,8.975-0.303c0.15-0.01,0.295-0.033,0.442-0.052
			l20.625,20.625L254.042,482.92l-10.129-7.658l52.684-69.681c2.513-3.324,1.856-8.057-1.468-10.57
			c-3.326-2.513-8.056-1.856-10.57,1.468l-57.235,75.7c-2.513,3.324-1.856,8.056,1.468,10.57l22.21,16.792
			c1.318,0.996,2.918,1.527,4.55,1.527c0.354,0,0.71-0.025,1.065-0.076c1.991-0.284,3.786-1.35,4.987-2.963L348.772,381
			c1.279-0.526,2.405-1.396,3.235-2.54l46.401-63.923C448.204,263.666,447.881,181.778,397.423,131.319z M190.295,229.09
			l35.881,35.881l-18.91,18.91C197.1,267.394,191.257,248.478,190.295,229.09z M149.751,380.773l-9.017-9.017l96.114-96.114
			l9.017,9.017L149.751,380.773z M236.24,315.624l20.294-20.294l43.152,43.152C276.658,337.4,254.7,329.513,236.24,315.624z
			 M344.295,361.749L168.208,185.662l51.054-38.6l163.304,163.304L344.295,361.749z"/>
	</g>
</g>
<g>
	<g>
		<path d="M331.013,8.176c-10.902-10.902-28.639-10.902-39.54,0c-10.902,10.901-10.902,28.639,0,39.54
			c5.452,5.451,12.61,8.175,19.77,8.175c7.159,0,14.32-2.725,19.77-8.175C341.913,36.815,341.913,19.078,331.013,8.176z
			 M320.343,37.044c-5.018,5.016-13.182,5.017-18.199,0c-5.018-5.017-5.018-13.18,0-18.199c2.509-2.509,5.804-3.763,9.099-3.763
			c3.295,0,6.591,1.255,9.1,3.763C325.36,23.863,325.36,32.027,320.343,37.044z"/>
	</g>
</g>
<g>
	<g>
		<path d="M426.651,388.607c-5.281-5.281-12.301-8.189-19.77-8.189c-7.468,0-14.489,2.909-19.77,8.189
			c-10.902,10.901-10.902,28.639,0,39.54c5.281,5.281,12.302,8.189,19.77,8.189c7.468,0,14.489-2.909,19.77-8.189
			C437.553,417.246,437.553,399.508,426.651,388.607z M415.981,417.477c-2.431,2.431-5.662,3.77-9.099,3.77s-6.668-1.339-9.099-3.77
			c-5.017-5.017-5.017-13.181,0-18.199c2.509-2.509,5.804-3.763,9.099-3.763c3.295,0,6.591,1.255,9.099,3.763
			C420.998,404.295,420.998,412.46,415.981,417.477z"/>
	</g>
</g>
<g>
	<g>
		<path d="M493.765,274.123c-5.281-5.281-12.302-8.189-19.77-8.189s-14.489,2.909-19.77,8.189
			c-5.281,5.281-8.189,12.302-8.189,19.77s2.909,14.489,8.189,19.77c5.281,5.281,12.302,8.189,19.77,8.189s14.489-2.909,19.77-8.189
			c5.281-5.281,8.189-12.302,8.189-19.77S499.046,279.403,493.765,274.123z M483.094,302.991c-2.431,2.431-5.662,3.77-9.1,3.77
			c-3.438,0-6.668-1.339-9.099-3.77c-2.431-2.431-3.77-5.662-3.77-9.099s1.339-6.668,3.77-9.099s5.662-3.77,9.099-3.77
			s6.669,1.339,9.1,3.77C488.111,289.811,488.111,297.974,483.094,302.991z"/>
	</g>
</g>
<g>
	<g>
		<path d="M234.003,67.19l-4.715-7.436l2.187-8.528c0.662-2.583-0.088-5.324-1.974-7.209c-1.886-1.886-4.626-2.635-7.21-1.974
			l-8.528,2.187l-7.436-4.715c-2.252-1.428-5.091-1.561-7.466-0.351c-2.376,1.211-3.937,3.586-4.105,6.247l-0.555,8.787
			l-6.782,5.614c-2.054,1.7-3.058,4.359-2.641,6.993c0.419,2.634,2.195,4.852,4.674,5.834l8.185,3.244l3.244,8.185
			c0.983,2.479,3.201,4.256,5.834,4.673c0.394,0.062,0.789,0.093,1.181,0.093c2.226,0,4.365-0.987,5.811-2.734l5.614-6.782
			l8.787-0.555c2.662-0.168,5.036-1.728,6.247-4.105C235.564,72.28,235.431,69.441,234.003,67.19z M210.205,66.706
			c-0.731-1.469-1.924-2.661-3.392-3.392c1.171-1.149,1.937-2.651,2.178-4.274c1.456,0.759,3.12,1.022,4.739,0.75
			c-0.272,1.619-0.008,3.283,0.751,4.738C212.856,64.769,211.355,65.534,210.205,66.706z"/>
	</g>
</g>
<g>
	<g>
		<path d="M107.146,320.539c-2.947-2.947-7.724-2.947-10.67,0l-54.832,54.832c-2.947,2.947-2.947,7.724,0,10.67
			c1.473,1.473,3.404,2.21,5.335,2.21c1.931,0,3.861-0.737,5.335-2.21l54.832-54.832
			C110.093,328.263,110.093,323.485,107.146,320.539z"/>
	</g>
</g>
<g>
	<g>
		<path d="M201.505,414.897c-2.947-2.947-7.724-2.947-10.67,0l-76.856,76.856c-2.947,2.947-2.947,7.725,0,10.67
			c1.473,1.473,3.404,2.21,5.335,2.21c1.931,0,3.862-0.736,5.335-2.21l76.856-76.856
			C204.452,422.621,204.452,417.843,201.505,414.897z"/>
	</g>
</g>
<g>
	<g>
		<path d="M112.336,409.706c-2.947-2.947-7.725-2.947-10.67,0l-89.411,89.412c-2.947,2.947-2.947,7.724,0,10.67
			c1.473,1.473,3.404,2.21,5.335,2.21c1.931,0,3.862-0.736,5.335-2.21l89.411-89.412
			C115.283,417.431,115.283,412.653,112.336,409.706z"/>
	</g>
</g>
<g>
</g>
<g>
</g>
<g>
</g>
<g>
</g>
<g>
</g>
<g>
</g>
<g>
</g>
<g>
</g>
<g>
</g>
<g>
</g>
<g>
</g>
<g>
</g>
<g>
</g>
<g>
</g>
<g>
</g>
</svg>
